<?xml version="1.0" standalone="no"?>
<svg width="1056" height="816" xmlns="http://www.w3.org/2000/svg" id="svgvm0"><g transform="translate(5,5)" style="font-family: sans-serif;"><g><g transform="translate(0, 0)"><g transform="translate(0,5)"><rect class="header-box" width="336.8474576271186" height="86" stroke="black" fill="white" rx="5"/><rect class="label-cover" x="8" y="-9.5" width="34.203125" height="17.5" fill="white" rx="5"/><text class="header-box-label" x="10" font-size="12" y="3">about</text><g class="header-box-content" transform="translate(5, 0)"><g transform="translate(0, 2.0975609756097526)"><text font-size="24.33309545049063"><tspan x="4" y="27.426829268292682">Accuknox Protection</tspan></text><line x1="0" x2="326.8474576271186" y1="39.853658536585364" y2="39.853658536585364" stroke="#dddddd"/></g><g transform="translate(0, 44.048780487804876)"><text font-size="13.209394673123484"><tspan x="4" y="13.713414634146341">Ability for knox policy enforcement</tspan><tspan x="4" y="33.140243902439025">engines to offer MITRE Defense</tspan></text></g></g></g></g><g transform="translate(354.57627118644064, 0)"><g transform="translate(0,5)"><rect class="header-box" width="336.8474576271186" height="86" stroke="black" fill="white" rx="5"/><rect class="label-cover" x="8" y="-9.5" width="43.359375" height="17.5" fill="white" rx="5"/><text class="header-box-label" x="10" font-size="12" y="3">domain</text><g class="header-box-content" transform="translate(5, 0)"><g transform="translate(0, 4.095238095238102)"><text font-size="28"><tspan x="4" y="30.154761904761898">Enterprise</tspan><tspan x="4" y="64.6547619047619">ATT&amp;CK v8</tspan></text></g></g></g></g><g transform="translate(709.1525423728813, 0)"><g transform="translate(0,5)"><rect class="header-box" width="336.8474576271186" height="86" stroke="black" fill="white" rx="5"/><rect class="label-cover" x="8" y="-9.5" width="32.671875" height="17.5" fill="white" rx="5"/><text class="header-box-label" x="10" font-size="12" y="3">filters</text><g class="header-box-content" transform="translate(5, 0)"><g transform="translate(0, 4.095238095238102)"><text font-size="22.015657788539144"><tspan x="4" y="28.154761904761898">Linux, Network, PRE,</tspan><tspan x="4" y="62.6547619047619">GCP, AWS, Azure, SaaS</tspan></text></g></g></g></g></g><g transform="translate(0,97)"><g><g class="tactic reconnaissance" transform="translate(0, 0)"><g class="techniques"><g class="technique T1595" transform="translate(0, 54.61538461538462)"><rect class="cell" height="54.61538461538462" width="95.09090909090908" fill="#a1d99b" stroke="#6B7279"/><polygon class="sidebar" transform="translate(0, 54.61538461538462)" points="0,0 12,0 12,12" fill="#6B7279" visibility="hidden"/><text font-size="12" fill="black"><tspan x="4" y="23.55769230769231">Active</tspan><tspan x="4" y="38.05769230769231">Scanning</tspan></text></g></g><g class="subtechniques"/><g class="tactic-label"><text font-size="9.02012987012987" fill="black" font-weight="bold"><tspan text-anchor="middle" x="47.54545454545454" y="29.80769230769231">Reconnaissance</tspan></text></g></g><g class="tactic initial-access" transform="translate(105.65656565656565, 0)"><g class="techniques"><g class="technique T1190" transform="translate(0, 54.61538461538462)"><rect class="cell" height="54.61538461538462" width="95.09090909090908" fill="#74c476" stroke="#6B7279"/><polygon class="sidebar" transform="translate(0, 54.61538461538462)" points="0,0 12,0 12,0" fill="#6B7279" visibility="hidden"/><text font-size="9.713986013986013" fill="black"><tspan x="4" y="15.141025641025642">Exploit</tspan><tspan x="4" y="29.80769230769231">Public-Facing</tspan><tspan x="4" y="44.47435897435898">Application</tspan></text></g></g><g class="subtechniques"/><g class="tactic-label"><text font-size="12" fill="black" font-weight="bold"><tspan text-anchor="middle" x="47.54545454545454" y="23.55769230769231">Initial</tspan><tspan text-anchor="middle" x="47.54545454545454" y="38.05769230769231">Access</tspan></text></g></g><g class="tactic execution" transform="translate(211.3131313131313, 0)"><g class="techniques"><g class="technique T1059" transform="translate(0, 54.61538461538462)"><rect class="cell" height="54.61538461538462" width="95.09090909090908" fill="#74c476" stroke="#6B7279"/><polygon class="sidebar" transform="translate(0, 54.61538461538462)" points="0,0 12,0 12,12" fill="#6B7279" visibility="hidden"/><text font-size="11.480165289256197" fill="black"><tspan x="4" y="16.141025641025642">Command and</tspan><tspan x="4" y="30.80769230769231">Scripting</tspan><tspan x="4" y="45.47435897435898">Interpreter</tspan></text></g><g class="technique T1106" transform="translate(0, 109.23076923076924)"><rect class="cell" height="54.61538461538462" width="95.09090909090908" fill="#74c476" stroke="#6B7279"/><polygon class="sidebar" transform="translate(0, 54.61538461538462)" points="0,0 12,0 12,0" fill="#6B7279" visibility="hidden"/><text font-size="12" fill="black"><tspan x="4" y="30.80769230769231">Native API</tspan></text></g><g class="technique T1053" transform="translate(0, 163.84615384615387)"><rect class="cell" height="54.61538461538462" width="95.09090909090908" fill="#74c476" stroke="#6B7279"/><polygon class="sidebar" transform="translate(0, 54.61538461538462)" points="0,0 12,0 12,12" fill="#6B7279" visibility="hidden"/><text font-size="12" fill="black"><tspan x="4" y="23.55769230769231">Scheduled</tspan><tspan x="4" y="38.05769230769231">Task/Job</tspan></text></g></g><g class="subtechniques"/><g class="tactic-label"><text font-size="12" fill="black" font-weight="bold"><tspan text-anchor="middle" x="47.54545454545454" y="30.80769230769231">Execution</tspan></text></g></g><g class="tactic persistence" transform="translate(316.96969696969694, 0)"><g class="techniques"><g class="technique T1547" transform="translate(0, 54.61538461538462)"><rect class="cell" height="54.61538461538462" width="95.09090909090908" fill="#74c476" stroke="#6B7279"/><polygon class="sidebar" transform="translate(0, 54.61538461538462)" points="0,0 12,0 12,12" fill="#6B7279" visibility="hidden"/><text font-size="10.923076923076925" fill="black"><tspan x="4" y="10.701923076923077">Boot</tspan><tspan x="4" y="24.105769230769234">or Logon</tspan><tspan x="4" y="37.50961538461539">Autostart</tspan><tspan x="4" y="50.91346153846154">Execution</tspan></text></g><g class="technique T1136" transform="translate(0, 109.23076923076924)"><rect class="cell" height="54.61538461538462" width="95.09090909090908" fill="#74c476" stroke="#6B7279"/><polygon class="sidebar" transform="translate(0, 54.61538461538462)" points="0,0 12,0 12,12" fill="#6B7279" visibility="hidden"/><text font-size="12" fill="black"><tspan x="4" y="23.55769230769231">Create</tspan><tspan x="4" y="38.05769230769231">Account</tspan></text></g><g class="technique T1543" transform="translate(0, 163.84615384615387)"><rect class="cell" height="54.61538461538462" width="95.09090909090908" fill="#74c476" stroke="#6B7279"/><polygon class="sidebar" transform="translate(0, 54.61538461538462)" points="0,0 12,0 12,12" fill="#6B7279" visibility="hidden"/><text font-size="10.923076923076925" fill="black"><tspan x="4" y="10.701923076923077">Create</tspan><tspan x="4" y="24.105769230769234">or Modify</tspan><tspan x="4" y="37.50961538461539">System</tspan><tspan x="4" y="50.91346153846154">Process</tspan></text></g><g class="technique T1546" transform="translate(0, 218.46153846153848)"><rect class="cell" height="54.61538461538462" width="95.09090909090908" fill="#74c476" stroke="#6B7279"/><polygon class="sidebar" transform="translate(0, 54.61538461538462)" points="0,0 12,0 12,12" fill="#6B7279" visibility="hidden"/><text font-size="12" fill="black"><tspan x="4" y="16.141025641025642">Event</tspan><tspan x="4" y="30.80769230769231">Triggered</tspan><tspan x="4" y="45.47435897435898">Execution</tspan></text></g><g class="technique T1574" transform="translate(0, 273.0769230769231)"><rect class="cell" height="54.61538461538462" width="95.09090909090908" fill="#74c476" stroke="#6B7279"/><polygon class="sidebar" transform="translate(0, 54.61538461538462)" points="0,0 12,0 12,12" fill="#6B7279" visibility="hidden"/><text font-size="12" fill="black"><tspan x="4" y="16.141025641025642">Hijack</tspan><tspan x="4" y="30.80769230769231">Execution</tspan><tspan x="4" y="45.47435897435898">Flow</tspan></text></g><g class="technique T1542" transform="translate(0, 327.69230769230774)"><rect class="cell" height="54.61538461538462" width="95.09090909090908" fill="#74c476" stroke="#6B7279"/><polygon class="sidebar" transform="translate(0, 54.61538461538462)" points="0,0 12,0 12,12" fill="#6B7279" visibility="hidden"/><text font-size="12" fill="black"><tspan x="4" y="23.55769230769231">Pre-OS</tspan><tspan x="4" y="38.05769230769231">Boot</tspan></text></g><g class="technique T1053" transform="translate(0, 382.30769230769226)"><rect class="cell" height="54.61538461538462" width="95.09090909090908" fill="#74c476" stroke="#6B7279"/><polygon class="sidebar" transform="translate(0, 54.61538461538462)" points="0,0 12,0 12,12" fill="#6B7279" visibility="hidden"/><text font-size="12" fill="black"><tspan x="4" y="23.55769230769231">Scheduled</tspan><tspan x="4" y="38.05769230769231">Task/Job</tspan></text></g><g class="technique T1205" transform="translate(0, 436.92307692307696)"><rect class="cell" height="54.61538461538462" width="95.09090909090908" fill="#74c476" stroke="#6B7279"/><polygon class="sidebar" transform="translate(0, 54.61538461538462)" points="0,0 12,0 12,12" fill="#6B7279" visibility="hidden"/><text font-size="12" fill="black"><tspan x="4" y="23.55769230769231">Traffic</tspan><tspan x="4" y="38.05769230769231">Signaling</tspan></text></g></g><g class="subtechniques"/><g class="tactic-label"><text font-size="11.480165289256197" fill="black" font-weight="bold"><tspan text-anchor="middle" x="47.54545454545454" y="30.80769230769231">Persistence</tspan></text></g></g><g class="tactic privilege-escalation" transform="translate(422.6262626262626, 0)"><g class="techniques"><g class="technique T1548" transform="translate(0, 54.61538461538462)"><rect class="cell" height="54.61538461538462" width="95.09090909090908" fill="#74c476" stroke="#6B7279"/><polygon class="sidebar" transform="translate(0, 54.61538461538462)" points="0,0 12,0 12,12" fill="#6B7279" visibility="hidden"/><text font-size="10.923076923076925" fill="black"><tspan x="4" y="10.701923076923077">Abuse</tspan><tspan x="4" y="24.105769230769234">Elevation</tspan><tspan x="4" y="37.50961538461539">Control</tspan><tspan x="4" y="50.91346153846154">Mechanism</tspan></text></g><g class="technique T1547" transform="translate(0, 109.23076923076924)"><rect class="cell" height="54.61538461538462" width="95.09090909090908" fill="#74c476" stroke="#6B7279"/><polygon class="sidebar" transform="translate(0, 54.61538461538462)" points="0,0 12,0 12,12" fill="#6B7279" visibility="hidden"/><text font-size="10.923076923076925" fill="black"><tspan x="4" y="10.701923076923077">Boot</tspan><tspan x="4" y="24.105769230769234">or Logon</tspan><tspan x="4" y="37.50961538461539">Autostart</tspan><tspan x="4" y="50.91346153846154">Execution</tspan></text></g><g class="technique T1543" transform="translate(0, 163.84615384615387)"><rect class="cell" height="54.61538461538462" width="95.09090909090908" fill="#74c476" stroke="#6B7279"/><polygon class="sidebar" transform="translate(0, 54.61538461538462)" points="0,0 12,0 12,12" fill="#6B7279" visibility="hidden"/><text font-size="10.923076923076925" fill="black"><tspan x="4" y="10.701923076923077">Create</tspan><tspan x="4" y="24.105769230769234">or Modify</tspan><tspan x="4" y="37.50961538461539">System</tspan><tspan x="4" y="50.91346153846154">Process</tspan></text></g><g class="technique T1546" transform="translate(0, 218.46153846153848)"><rect class="cell" height="54.61538461538462" width="95.09090909090908" fill="#74c476" stroke="#6B7279"/><polygon class="sidebar" transform="translate(0, 54.61538461538462)" points="0,0 12,0 12,12" fill="#6B7279" visibility="hidden"/><text font-size="12" fill="black"><tspan x="4" y="16.141025641025642">Event</tspan><tspan x="4" y="30.80769230769231">Triggered</tspan><tspan x="4" y="45.47435897435898">Execution</tspan></text></g><g class="technique T1574" transform="translate(0, 273.0769230769231)"><rect class="cell" height="54.61538461538462" width="95.09090909090908" fill="#74c476" stroke="#6B7279"/><polygon class="sidebar" transform="translate(0, 54.61538461538462)" points="0,0 12,0 12,12" fill="#6B7279" visibility="hidden"/><text font-size="12" fill="black"><tspan x="4" y="16.141025641025642">Hijack</tspan><tspan x="4" y="30.80769230769231">Execution</tspan><tspan x="4" y="45.47435897435898">Flow</tspan></text></g><g class="technique T1055" transform="translate(0, 327.69230769230774)"><rect class="cell" height="54.61538461538462" width="95.09090909090908" fill="#74c476" stroke="#6B7279"/><polygon class="sidebar" transform="translate(0, 54.61538461538462)" points="0,0 12,0 12,12" fill="#6B7279" visibility="hidden"/><text font-size="12" fill="black"><tspan x="4" y="23.55769230769231">Process</tspan><tspan x="4" y="38.05769230769231">Injection</tspan></text></g><g class="technique T1053" transform="translate(0, 382.30769230769226)"><rect class="cell" height="54.61538461538462" width="95.09090909090908" fill="#74c476" stroke="#6B7279"/><polygon class="sidebar" transform="translate(0, 54.61538461538462)" points="0,0 12,0 12,12" fill="#6B7279" visibility="hidden"/><text font-size="12" fill="black"><tspan x="4" y="23.55769230769231">Scheduled</tspan><tspan x="4" y="38.05769230769231">Task/Job</tspan></text></g></g><g class="subtechniques"/><g class="tactic-label"><text font-size="12" fill="black" font-weight="bold"><tspan text-anchor="middle" x="47.54545454545454" y="23.55769230769231">Privilege</tspan><tspan text-anchor="middle" x="47.54545454545454" y="38.05769230769231">Escalation</tspan></text></g></g><g class="tactic defense-evasion" transform="translate(528.2828282828282, 0)"><g class="techniques"><g class="technique T1548" transform="translate(0, 54.61538461538462)"><rect class="cell" height="54.61538461538462" width="95.09090909090908" fill="#74c476" stroke="#6B7279"/><polygon class="sidebar" transform="translate(0, 54.61538461538462)" points="0,0 12,0 12,12" fill="#6B7279" visibility="hidden"/><text font-size="10.923076923076925" fill="black"><tspan x="4" y="10.701923076923077">Abuse</tspan><tspan x="4" y="24.105769230769234">Elevation</tspan><tspan x="4" y="37.50961538461539">Control</tspan><tspan x="4" y="50.91346153846154">Mechanism</tspan></text></g><g class="technique T1140" transform="translate(0, 109.23076923076924)"><rect class="cell" height="54.61538461538462" width="95.09090909090908" fill="#74c476" stroke="#6B7279"/><polygon class="sidebar" transform="translate(0, 54.61538461538462)" points="0,0 12,0 12,0" fill="#6B7279" visibility="hidden"/><text font-size="7.015656565656564" fill="black"><tspan x="4" y="15.141025641025642">Deobfuscate/Decode</tspan><tspan x="4" y="29.80769230769231">Files</tspan><tspan x="4" y="44.47435897435898">or Information</tspan></text></g><g class="technique T1222" transform="translate(0, 163.84615384615387)"><rect class="cell" height="54.61538461538462" width="95.09090909090908" fill="#74c476" stroke="#6B7279"/><polygon class="sidebar" transform="translate(0, 54.61538461538462)" points="0,0 12,0 12,12" fill="#6B7279" visibility="hidden"/><text font-size="10.523484848484847" fill="black"><tspan x="4" y="10.701923076923077">File and</tspan><tspan x="4" y="24.105769230769234">Directory</tspan><tspan x="4" y="37.50961538461539">Permissions</tspan><tspan x="4" y="50.91346153846154">Modification</tspan></text></g><g class="technique T1564" transform="translate(0, 218.46153846153848)"><rect class="cell" height="54.61538461538462" width="95.09090909090908" fill="#74c476" stroke="#6B7279"/><polygon class="sidebar" transform="translate(0, 54.61538461538462)" points="0,0 12,0 12,12" fill="#6B7279" visibility="hidden"/><text font-size="12" fill="black"><tspan x="4" y="23.55769230769231">Hide</tspan><tspan x="4" y="38.05769230769231">Artifacts</tspan></text></g><g class="technique T1574" transform="translate(0, 273.0769230769231)"><rect class="cell" height="54.61538461538462" width="95.09090909090908" fill="#74c476" stroke="#6B7279"/><polygon class="sidebar" transform="translate(0, 54.61538461538462)" points="0,0 12,0 12,12" fill="#6B7279" visibility="hidden"/><text font-size="12" fill="black"><tspan x="4" y="16.141025641025642">Hijack</tspan><tspan x="4" y="30.80769230769231">Execution</tspan><tspan x="4" y="45.47435897435898">Flow</tspan></text></g><g class="technique T1562" transform="translate(0, 327.69230769230774)"><rect class="cell" height="54.61538461538462" width="95.09090909090908" fill="#74c476" stroke="#6B7279"/><polygon class="sidebar" transform="translate(0, 54.61538461538462)" points="0,0 12,0 12,12" fill="#6B7279" visibility="hidden"/><text font-size="12" fill="black"><tspan x="4" y="23.55769230769231">Impair</tspan><tspan x="4" y="38.05769230769231">Defenses</tspan></text></g><g class="technique T1036" transform="translate(0, 382.30769230769226)"><rect class="cell" height="54.61538461538462" width="95.09090909090908" fill="#74c476" stroke="#6B7279"/><polygon class="sidebar" transform="translate(0, 54.61538461538462)" points="0,0 12,0 12,12" fill="#6B7279" visibility="hidden"/><text font-size="10.523484848484847" fill="black"><tspan x="4" y="30.80769230769231">Masquerading</tspan></text></g><g class="technique T1556" transform="translate(0, 436.92307692307696)"><rect class="cell" height="54.61538461538462" width="95.09090909090908" fill="#74c476" stroke="#6B7279"/><polygon class="sidebar" transform="translate(0, 54.61538461538462)" points="0,0 12,0 12,12" fill="#6B7279" visibility="hidden"/><text font-size="9.02012987012987" fill="black"><tspan x="4" y="15.141025641025642">Modify</tspan><tspan x="4" y="29.80769230769231">Authentication</tspan><tspan x="4" y="44.47435897435898">Process</tspan></text></g><g class="technique T1542" transform="translate(0, 491.53846153846155)"><rect class="cell" height="54.61538461538462" width="95.09090909090908" fill="#74c476" stroke="#6B7279"/><polygon class="sidebar" transform="translate(0, 54.61538461538462)" points="0,0 12,0 12,12" fill="#6B7279" visibility="hidden"/><text font-size="12" fill="black"><tspan x="4" y="23.55769230769231">Pre-OS</tspan><tspan x="4" y="38.05769230769231">Boot</tspan></text></g><g class="technique T1055" transform="translate(0, 546.1538461538462)"><rect class="cell" height="54.61538461538462" width="95.09090909090908" fill="#74c476" stroke="#6B7279"/><polygon class="sidebar" transform="translate(0, 54.61538461538462)" points="0,0 12,0 12,12" fill="#6B7279" visibility="hidden"/><text font-size="12" fill="black"><tspan x="4" y="23.55769230769231">Process</tspan><tspan x="4" y="38.05769230769231">Injection</tspan></text></g><g class="technique T1553" transform="translate(0, 600.7692307692307)"><rect class="cell" height="54.61538461538462" width="95.09090909090908" fill="#74c476" stroke="#6B7279"/><polygon class="sidebar" transform="translate(0, 54.61538461538462)" points="0,0 12,0 12,12" fill="#6B7279" visibility="hidden"/><text font-size="12" fill="black"><tspan x="4" y="16.141025641025642">Subvert</tspan><tspan x="4" y="30.80769230769231">Trust</tspan><tspan x="4" y="45.47435897435898">Controls</tspan></text></g><g class="technique T1205" transform="translate(0, 655.3846153846155)"><rect class="cell" height="54.61538461538462" width="95.09090909090908" fill="#74c476" stroke="#6B7279"/><polygon class="sidebar" transform="translate(0, 54.61538461538462)" points="0,0 12,0 12,12" fill="#6B7279" visibility="hidden"/><text font-size="12" fill="black"><tspan x="4" y="23.55769230769231">Traffic</tspan><tspan x="4" y="38.05769230769231">Signaling</tspan></text></g></g><g class="subtechniques"/><g class="tactic-label"><text font-size="12" fill="black" font-weight="bold"><tspan text-anchor="middle" x="47.54545454545454" y="23.55769230769231">Defense</tspan><tspan text-anchor="middle" x="47.54545454545454" y="38.05769230769231">Evasion</tspan></text></g></g><g class="tactic credential-access" transform="translate(633.9393939393939, 0)"><g class="techniques"><g class="technique T1557" transform="translate(0, 54.61538461538462)"><rect class="cell" height="54.61538461538462" width="95.09090909090908" fill="#74c476" stroke="#6B7279"/><polygon class="sidebar" transform="translate(0, 54.61538461538462)" points="0,0 12,0 12,12" fill="#6B7279" visibility="hidden"/><text font-size="7.428342245989303" fill="black"><tspan x="4" y="29.80769230769231">Man-in-the-Middle</tspan></text></g><g class="technique T1556" transform="translate(0, 109.23076923076924)"><rect class="cell" height="54.61538461538462" width="95.09090909090908" fill="#74c476" stroke="#6B7279"/><polygon class="sidebar" transform="translate(0, 54.61538461538462)" points="0,0 12,0 12,12" fill="#6B7279" visibility="hidden"/><text font-size="9.02012987012987" fill="black"><tspan x="4" y="15.141025641025642">Modify</tspan><tspan x="4" y="29.80769230769231">Authentication</tspan><tspan x="4" y="44.47435897435898">Process</tspan></text></g><g class="technique T1003" transform="translate(0, 163.84615384615387)"><rect class="cell" height="54.61538461538462" width="95.09090909090908" fill="#74c476" stroke="#6B7279"/><polygon class="sidebar" transform="translate(0, 54.61538461538462)" points="0,0 12,0 12,12" fill="#6B7279" visibility="hidden"/><text font-size="12" fill="black"><tspan x="4" y="16.141025641025642">OS</tspan><tspan x="4" y="30.80769230769231">Credential</tspan><tspan x="4" y="45.47435897435898">Dumping</tspan></text></g><g class="technique T1552" transform="translate(0, 218.46153846153848)"><rect class="cell" height="54.61538461538462" width="95.09090909090908" fill="#74c476" stroke="#6B7279"/><polygon class="sidebar" transform="translate(0, 54.61538461538462)" points="0,0 12,0 12,12" fill="#6B7279" visibility="hidden"/><text font-size="11.480165289256197" fill="black"><tspan x="4" y="23.55769230769231">Unsecured</tspan><tspan x="4" y="38.05769230769231">Credentials</tspan></text></g></g><g class="subtechniques"/><g class="tactic-label"><text font-size="12" fill="black" font-weight="bold"><tspan text-anchor="middle" x="47.54545454545454" y="23.55769230769231">Credential</tspan><tspan text-anchor="middle" x="47.54545454545454" y="38.05769230769231">Access</tspan></text></g></g><g class="tactic collection" transform="translate(739.5959595959596, 0)"><g class="techniques"><g class="technique T1560" transform="translate(0, 54.61538461538462)"><rect class="cell" height="54.61538461538462" width="95.09090909090908" fill="#74c476" stroke="#6B7279"/><polygon class="sidebar" transform="translate(0, 54.61538461538462)" points="0,0 12,0 12,12" fill="#6B7279" visibility="hidden"/><text font-size="12" fill="black"><tspan x="4" y="16.141025641025642">Archive</tspan><tspan x="4" y="30.80769230769231">Collected</tspan><tspan x="4" y="45.47435897435898">Data</tspan></text></g><g class="technique T1530" transform="translate(0, 109.23076923076924)"><rect class="cell" height="54.61538461538462" width="95.09090909090908" fill="#74c476" stroke="#6B7279"/><polygon class="sidebar" transform="translate(0, 54.61538461538462)" points="0,0 12,0 12,0" fill="#6B7279" visibility="hidden"/><text font-size="10.923076923076925" fill="black"><tspan x="4" y="10.701923076923077">Data</tspan><tspan x="4" y="24.105769230769234">from Cloud</tspan><tspan x="4" y="37.50961538461539">Storage</tspan><tspan x="4" y="50.91346153846154">Object</tspan></text></g><g class="technique T1557" transform="translate(0, 163.84615384615387)"><rect class="cell" height="54.61538461538462" width="95.09090909090908" fill="#74c476" stroke="#6B7279"/><polygon class="sidebar" transform="translate(0, 54.61538461538462)" points="0,0 12,0 12,12" fill="#6B7279" visibility="hidden"/><text font-size="7.428342245989303" fill="black"><tspan x="4" y="29.80769230769231">Man-in-the-Middle</tspan></text></g></g><g class="subtechniques"/><g class="tactic-label"><text font-size="12" fill="black" font-weight="bold"><tspan text-anchor="middle" x="47.54545454545454" y="30.80769230769231">Collection</tspan></text></g></g><g class="tactic command-and-control" transform="translate(845.2525252525252, 0)"><g class="techniques"><g class="technique T1071" transform="translate(0, 54.61538461538462)"><rect class="cell" height="54.61538461538462" width="95.09090909090908" fill="#74c476" stroke="#6B7279"/><polygon class="sidebar" transform="translate(0, 54.61538461538462)" points="0,0 12,0 12,12" fill="#6B7279" visibility="hidden"/><text font-size="11.480165289256197" fill="black"><tspan x="4" y="16.141025641025642">Application</tspan><tspan x="4" y="30.80769230769231">Layer</tspan><tspan x="4" y="45.47435897435898">Protocol</tspan></text></g><g class="technique T1568" transform="translate(0, 109.23076923076924)"><rect class="cell" height="54.61538461538462" width="95.09090909090908" fill="#74c476" stroke="#6B7279"/><polygon class="sidebar" transform="translate(0, 54.61538461538462)" points="0,0 12,0 12,12" fill="#6B7279" visibility="hidden"/><text font-size="12" fill="black"><tspan x="4" y="23.55769230769231">Dynamic</tspan><tspan x="4" y="38.05769230769231">Resolution</tspan></text></g><g class="technique T1095" transform="translate(0, 163.84615384615387)"><rect class="cell" height="54.61538461538462" width="95.09090909090908" fill="#74c476" stroke="#6B7279"/><polygon class="sidebar" transform="translate(0, 54.61538461538462)" points="0,0 12,0 12,0" fill="#6B7279" visibility="hidden"/><text font-size="8.418787878787878" fill="black"><tspan x="4" y="22.55769230769231">Non-Application</tspan><tspan x="4" y="37.05769230769231">Layer Protocol</tspan></text></g><g class="technique T1571" transform="translate(0, 218.46153846153848)"><rect class="cell" height="54.61538461538462" width="95.09090909090908" fill="#74c476" stroke="#6B7279"/><polygon class="sidebar" transform="translate(0, 54.61538461538462)" points="0,0 12,0 12,0" fill="#6B7279" visibility="hidden"/><text font-size="10.523484848484847" fill="black"><tspan x="4" y="23.55769230769231">Non-Standard</tspan><tspan x="4" y="38.05769230769231">Port</tspan></text></g><g class="technique T1205" transform="translate(0, 273.0769230769231)"><rect class="cell" height="54.61538461538462" width="95.09090909090908" fill="#74c476" stroke="#6B7279"/><polygon class="sidebar" transform="translate(0, 54.61538461538462)" points="0,0 12,0 12,12" fill="#6B7279" visibility="hidden"/><text font-size="12" fill="black"><tspan x="4" y="23.55769230769231">Traffic</tspan><tspan x="4" y="38.05769230769231">Signaling</tspan></text></g></g><g class="subtechniques"/><g class="tactic-label"><text font-size="12" fill="black" font-weight="bold"><tspan text-anchor="middle" x="47.54545454545454" y="16.141025641025642">Command</tspan><tspan text-anchor="middle" x="47.54545454545454" y="30.80769230769231">and</tspan><tspan text-anchor="middle" x="47.54545454545454" y="45.47435897435898">Control</tspan></text></g></g><g class="tactic impact" transform="translate(950.9090909090908, 0)"><g class="techniques"><g class="technique T1485" transform="translate(0, 54.61538461538462)"><rect class="cell" height="54.61538461538462" width="95.09090909090908" fill="#74c476" stroke="#6B7279"/><polygon class="sidebar" transform="translate(0, 54.61538461538462)" points="0,0 12,0 12,0" fill="#6B7279" visibility="hidden"/><text font-size="11.480165289256197" fill="black"><tspan x="4" y="23.55769230769231">Data</tspan><tspan x="4" y="38.05769230769231">Destruction</tspan></text></g></g><g class="subtechniques"/><g class="tactic-label"><text font-size="12" fill="black" font-weight="bold"><tspan text-anchor="middle" x="47.54545454545454" y="30.80769230769231">Impact</tspan></text></g></g></g></g></g></svg>